<?xml version="1.0"?><svg viewBox="0 0 32 32" xmlns="http://www.w3.org/2000/svg"><defs><style>.cls-1{fill:#d9e1e8;}.cls-2{fill:#2893ea;}</style></defs><title/><g id="Rain"><path class="cls-1" d="M23.9,8.52a4.27,4.27,0,0,0-4.25-3,4.79,4.79,0,0,0-1.59.27,7.43,7.43,0,0,0-4.15-1.23,7.12,7.12,0,0,0-7,5,4.35,4.35,0,0,0-3,5.14A4.45,4.45,0,0,0,8.32,18h14.2a5.09,5.09,0,0,0,5.31-4.83A4.91,4.91,0,0,0,23.9,8.52Z"/><path class="cls-2" d="M6.17,24.24a1,1,0,0,1-.83-1.56l2-3A1,1,0,0,1,9,20.79l-2,3A1,1,0,0,1,6.17,24.24Z"/><path class="cls-2" d="M8.17,27.24a1,1,0,0,1-.83-1.56l4-6A1,1,0,0,1,13,20.79l-4,6A1,1,0,0,1,8.17,27.24Z"/><path class="cls-2" d="M14.17,24.24a1,1,0,0,1-.83-1.56l2-3A1,1,0,0,1,17,20.79l-2,3A1,1,0,0,1,14.17,24.24Z"/><path class="cls-2" d="M16.17,27.24a1,1,0,0,1-.83-1.56l4-6A1,1,0,0,1,21,20.79l-4,6A1,1,0,0,1,16.17,27.24Z"/><path class="cls-2" d="M22.17,24.24a1,1,0,0,1-.83-1.56l2-3A1,1,0,0,1,25,20.79l-2,3A1,1,0,0,1,22.17,24.24Z"/></g></svg>